0
SECTION
2
HEADER
9
$INSUNITS
70
4
9
$ACADVER
1
AC1014
9
$HANDSEED
5
FFFF
0
ENDSEC
0
SECTION
2
TABLES
0
TABLE
2
VPORT
5
8
100
AcDbSymbolTable
0
ENDTAB
0
TABLE
2
LTYPE
5
5
100
AcDbSymbolTable
0
LTYPE
5
14
100
AcDbSymbolTableRecord
100
AcDbLinetypeTableRecord
2
BYBLOCK
70
0
0
LTYPE
5
15
100
AcDbSymbolTableRecord
100
AcDbLinetypeTableRecord
2
BYLAYER
70
0
0
LTYPE
5
16
100
AcDbSymbolTableRecord
100
AcDbLinetypeTableRecord
2
DASHED
70
0
3
Dashed __ __ __ __ __ __ __ __ __ __ __ __ __ _
72
65
73
2
40
0.75
49
0.5
74
0
49
-0.25
74
0
0
ENDTAB
0
TABLE
2
LAYER
5
2
100
AcDbSymbolTable
70
2
0
LAYER
5
50
100
AcDbSymbolTableRecord
100
AcDbLayerTableRecord
2
0
70
0
62
7
6
CONTINUOUS
0
ENDTAB
0
TABLE
2
STYLE
5
3
100
AcDbSymbolTable
70
1
0
STYLE
5
11
100
AcDbSymbolTableRecord
100
AcDbTextStyleTableRecord
2
STANDARD
70
0
0
ENDTAB
0
TABLE
2
VIEW
5
6
100
AcDbSymbolTable
70
0
0
ENDTAB
0
TABLE
2
UCS
5
7
100
AcDbSymbolTable
70
0
0
ENDTAB
0
TABLE
2
APPID
5
9
100
AcDbSymbolTable
70
2
0
APPID
5
12
100
AcDbSymbolTableRecord
100
AcDbRegAppTableRecord
2
ACAD
70
0
0
ENDTAB
0
TABLE
2
DIMSTYLE
5
A
100
AcDbSymbolTable
70
1
0
ENDTAB
0
TABLE
2
BLOCK_RECORD
5
1
100
AcDbSymbolTable
70
1
0
BLOCK_RECORD
5
1F
100
AcDbSymbolTableRecord
100
AcDbBlockTableRecord
2
*MODEL_SPACE
0
BLOCK_RECORD
5
1B
100
AcDbSymbolTableRecord
100
AcDbBlockTableRecord
2
*PAPER_SPACE
0
ENDTAB
0
ENDSEC
0
SECTION
2
BLOCKS
0
BLOCK
5
20
100
AcDbEntity
100
AcDbBlockBegin
2
*MODEL_SPACE
0
ENDBLK
5
21
100
AcDbEntity
100
AcDbBlockEnd
0
BLOCK
5
1C
100
AcDbEntity
100
AcDbBlockBegin
2
*PAPER_SPACE
0
ENDBLK
5
1D
100
AcDbEntity
100
AcDbBlockEnd
0
ENDSEC
0
SECTION
2
ENTITIES
0
POINT
5
100
100
AcDbEntity
8
0
100
AcDbPoint
10
-35.978093942083092
20
-68.499781072901712
30
0
0
POINT
5
101
100
AcDbEntity
8
0
100
AcDbPoint
10
-35.978093942083085
20
-98.499781072901712
30
0
0
POINT
5
102
100
AcDbEntity
8
0
100
AcDbPoint
10
-13.478093942083087
20
-98.499781072901698
30
0
0
POINT
5
103
100
AcDbEntity
8
0
100
AcDbPoint
10
-13.478093942083087
20
-103.9997810729018
30
0
0
POINT
5
104
100
AcDbEntity
8
0
100
AcDbPoint
10
35.021906057916922
20
-103.9997810729018
30
0
0
POINT
5
105
100
AcDbEntity
8
0
100
AcDbPoint
10
57.521906057916922
20
-98.499781072901712
30
0
0
POINT
5
106
100
AcDbEntity
8
0
100
AcDbPoint
10
57.521906057916901
20
-68.499781072901683
30
0
0
LWPOLYLINE
5
107
100
AcDbEntity
8
0
100
AcDbPolyline
90
28
70
1
43
0.0
10
-35.978093502432856
20
-72.499781061294541
10
-35.978093315565999
20
-94.499781052009908
42
0.41421353210071565
10
-31.978093926299685
20
-98.49977659185916
10
-20.017864497048166
20
-98.499776484587585
10
-17.583610409672282
20
-98.499776690834281
42
-0.38663620384597586
10
-13.477907249812047
20
-101.99966786084784
10
-13.47790724877046
20
-101.99978108104274
42
0.41420081336618586
10
-11.478093947243648
20
-103.999748429473
10
33.021906059383895
20
-103.99977351329758
42
0.41421106332734464
10
35.021854213152594
20
-101.99977744056736
10
35.021885759170026
20
-101.99905011678831
42
-0.39551630887952427
10
39.25158049343117
20
-98.499844499485945
10
42.521906058129176
20
-98.499784209637056
10
53.521906076455885
20
-98.499784555180113
42
0.4142135515884437
10
57.521904568019615
20
-94.499781089847545
10
57.521904656990529
20
-72.499781072904241
42
0.41421335934419601
10
53.521906057947497
20
-68.499790519802971
10
45.000000670551934
20
-68.49978964376642
10
39.193509609294971
20
-68.499789193703947
42
-0.39132324791117151
10
35.022288927993877
20
-64.999821541505909
10
35.021906058065113
20
-64.999784983557049
42
0.41421413508941157
10
33.021906057916908
20
-62.999781072739793
10
-11.478093652689648
20
-62.999781074728858
42
0.41421356249524377
10
-13.478093933926065
20
-64.99978078862469
10
-13.478093933771847
20
-65.013121640240698
42
-0.38440375794161658
10
-17.560856664411805
20
-68.499592148515347
10
-20.000000298030429
20
-68.499781121784807
10
-31.978094039537904
20
-68.499781173942296
42
0.41421353734253891
0
ENDSEC
0
SECTION
2
OBJECTS
0
DICTIONARY
5
C
100
AcDbDictionary
3
ACAD_GROUP
350
D
3
ACAD_MLINESTYLE
350
17
0
DICTIONARY
5
D
100
AcDbDictionary
0
DICTIONARY
5
1A
330
C
100
AcDbDictionary
0
DICTIONARY
5
17
100
AcDbDictionary
0
ENDSEC
0
EOF
