0
SECTION
2
HEADER
9
$INSUNITS
70
4
9
$ACADVER
1
AC1014
9
$HANDSEED
5
FFFF
0
ENDSEC
0
SECTION
2
TABLES
0
TABLE
2
VPORT
5
8
100
AcDbSymbolTable
0
ENDTAB
0
TABLE
2
LTYPE
5
5
100
AcDbSymbolTable
0
LTYPE
5
14
100
AcDbSymbolTableRecord
100
AcDbLinetypeTableRecord
2
BYBLOCK
70
0
0
LTYPE
5
15
100
AcDbSymbolTableRecord
100
AcDbLinetypeTableRecord
2
BYLAYER
70
0
0
LTYPE
5
16
100
AcDbSymbolTableRecord
100
AcDbLinetypeTableRecord
2
DASHED
70
0
3
Dashed __ __ __ __ __ __ __ __ __ __ __ __ __ _
72
65
73
2
40
0.75
49
0.5
74
0
49
-0.25
74
0
0
ENDTAB
0
TABLE
2
LAYER
5
2
100
AcDbSymbolTable
70
2
0
LAYER
5
50
100
AcDbSymbolTableRecord
100
AcDbLayerTableRecord
2
0
70
0
62
7
6
CONTINUOUS
0
ENDTAB
0
TABLE
2
STYLE
5
3
100
AcDbSymbolTable
70
1
0
STYLE
5
11
100
AcDbSymbolTableRecord
100
AcDbTextStyleTableRecord
2
STANDARD
70
0
0
ENDTAB
0
TABLE
2
VIEW
5
6
100
AcDbSymbolTable
70
0
0
ENDTAB
0
TABLE
2
UCS
5
7
100
AcDbSymbolTable
70
0
0
ENDTAB
0
TABLE
2
APPID
5
9
100
AcDbSymbolTable
70
2
0
APPID
5
12
100
AcDbSymbolTableRecord
100
AcDbRegAppTableRecord
2
ACAD
70
0
0
ENDTAB
0
TABLE
2
DIMSTYLE
5
A
100
AcDbSymbolTable
70
1
0
ENDTAB
0
TABLE
2
BLOCK_RECORD
5
1
100
AcDbSymbolTable
70
1
0
BLOCK_RECORD
5
1F
100
AcDbSymbolTableRecord
100
AcDbBlockTableRecord
2
*MODEL_SPACE
0
BLOCK_RECORD
5
1B
100
AcDbSymbolTableRecord
100
AcDbBlockTableRecord
2
*PAPER_SPACE
0
ENDTAB
0
ENDSEC
0
SECTION
2
BLOCKS
0
BLOCK
5
20
100
AcDbEntity
100
AcDbBlockBegin
2
*MODEL_SPACE
0
ENDBLK
5
21
100
AcDbEntity
100
AcDbBlockEnd
0
BLOCK
5
1C
100
AcDbEntity
100
AcDbBlockBegin
2
*PAPER_SPACE
0
ENDBLK
5
1D
100
AcDbEntity
100
AcDbBlockEnd
0
ENDSEC
0
SECTION
2
ENTITIES
0
POINT
5
100
100
AcDbEntity
8
0
100
AcDbPoint
10
-35.978093942083092
20
-68.499781072901698
30
0
0
POINT
5
101
100
AcDbEntity
8
0
100
AcDbPoint
10
-35.978093942083085
20
-98.499781072901698
30
0
0
POINT
5
102
100
AcDbEntity
8
0
100
AcDbPoint
10
-13.478093942083087
20
-98.499781072901683
30
0
0
POINT
5
103
100
AcDbEntity
8
0
100
AcDbPoint
10
-13.478093942083085
20
-103.99978107290178
30
0
0
POINT
5
104
100
AcDbEntity
8
0
100
AcDbPoint
10
35.021906057916922
20
-103.99978107290178
30
0
0
POINT
5
105
100
AcDbEntity
8
0
100
AcDbPoint
10
57.521906057916922
20
-98.499781072901698
30
0
0
POINT
5
106
100
AcDbEntity
8
0
100
AcDbPoint
10
57.521906057916894
20
-68.499781072901683
30
0
0
LWPOLYLINE
5
107
100
AcDbEntity
8
0
100
AcDbPolyline
90
28
70
1
43
0.0
10
-35.978093942083092
20
-72.499781072901698
10
-35.978093942083092
20
-94.499781072901655
42
0.41421356237309503
10
-31.978093942083049
20
-98.499781072901698
10
-20.017864496983083
20
-98.499781072901683
10
-17.478093942083085
20
-98.499781072901683
42
-0.41421356237309503
10
-13.478093942083085
20
-102.49978107290168
10
-13.478093942083085
20
-101.99978107290178
42
0.41421356237309503
10
-11.478093942083088
20
-103.99978107290178
10
33.021906057916929
20
-103.99978107290178
42
0.41421356237309503
10
35.021906057916922
20
-101.99978107290178
10
35.021906057916922
20
-102.49978107290178
42
-0.41421356237309503
10
39.021906057916944
20
-98.499781072901769
10
42.521906057916922
20
-98.499781072901698
10
53.521906057916937
20
-98.499781072901698
42
0.41421356237309503
10
57.521906057916922
20
-94.499781072901712
10
57.521906057916922
20
-72.499781072901698
42
0.41421356237309503
10
53.521906057916908
20
-68.499781072901683
10
45.000000670552254
20
-68.499781072901683
10
39.021906057916922
20
-68.499781072901683
42
-0.41421356237309503
10
35.021906057916908
20
-64.499781072901669
10
35.021906057916908
20
-64.999781072901683
42
0.41421356237309503
10
33.021906057916908
20
-62.999781072901683
10
-11.478093942083092
20
-62.999781072901683
42
0.41421356237309503
10
-13.478093942083094
20
-64.999781072901683
10
-13.478093942083094
20
-64.499781072901669
42
-0.41421356237309503
10
-17.478093942083099
20
-68.499781072901683
10
-20.000000298023224
20
-68.499781072901683
10
-31.978093942083092
20
-68.499781072901698
42
0.41421356237309503
0
ENDSEC
0
SECTION
2
OBJECTS
0
DICTIONARY
5
C
100
AcDbDictionary
3
ACAD_GROUP
350
D
3
ACAD_MLINESTYLE
350
17
0
DICTIONARY
5
D
100
AcDbDictionary
0
DICTIONARY
5
1A
330
C
100
AcDbDictionary
0
DICTIONARY
5
17
100
AcDbDictionary
0
ENDSEC
0
EOF
